<svg width="285" height="51" viewBox="0 0 285 51" fill="none" xmlns="http://www.w3.org/2000/svg">
<path d="M95.603 34.5H87.959V33.044H90.325V17.756H87.959V16.3H95.603V17.756H93.237V33.044H95.603V34.5Z" fill="black"/>
<path d="M113.892 34.5H107.522V33.2H109.238V26.674C109.238 25.3047 109.03 24.2387 108.614 23.476C108.198 22.7133 107.436 22.332 106.326 22.332C105.841 22.332 105.39 22.41 104.974 22.566C104.576 22.722 104.212 22.93 103.882 23.19C103.57 23.45 103.293 23.7533 103.05 24.1C102.825 24.4467 102.652 24.8107 102.53 25.192V33.2H104.246V34.5H97.8764V33.2H99.8004V22.15H97.8764V20.85H102.53V23.554H102.556C102.955 22.722 103.536 22.02 104.298 21.448C105.078 20.876 106.014 20.59 107.106 20.59C107.886 20.59 108.58 20.6767 109.186 20.85C109.793 21.006 110.296 21.3007 110.694 21.734C111.11 22.1673 111.422 22.748 111.63 23.476C111.856 24.204 111.968 25.1313 111.968 26.258V33.2H113.892V34.5Z" fill="black"/>
<path d="M114.826 20.85H117.14V17.6H119.87V20.85H124.186V22.514H119.87V30.106C119.87 31.198 120.009 31.9693 120.286 32.42C120.564 32.8707 121.014 33.096 121.638 33.096C122.176 33.096 122.635 33.0007 123.016 32.81C123.415 32.6193 123.779 32.4113 124.108 32.186L124.758 33.2C124.602 33.356 124.386 33.5293 124.108 33.72C123.848 33.8933 123.545 34.058 123.198 34.214C122.852 34.37 122.462 34.5 122.028 34.604C121.612 34.708 121.179 34.76 120.728 34.76C119.567 34.76 118.674 34.4653 118.05 33.876C117.444 33.2693 117.14 32.2727 117.14 30.886V22.514H114.826V20.85Z" fill="black"/>
<path d="M138.226 32.706C137.775 33.3473 137.134 33.8587 136.302 34.24C135.487 34.604 134.534 34.786 133.442 34.786C132.298 34.786 131.284 34.6213 130.4 34.292C129.533 33.9453 128.805 33.4687 128.216 32.862C127.626 32.238 127.176 31.4927 126.864 30.626C126.569 29.742 126.422 28.7627 126.422 27.688C126.422 25.3653 127.002 23.606 128.164 22.41C129.325 21.1967 130.954 20.59 133.052 20.59C133.745 20.59 134.421 20.6767 135.08 20.85C135.756 21.0233 136.354 21.3093 136.874 21.708C137.394 22.1067 137.81 22.6353 138.122 23.294C138.451 23.9527 138.616 24.7673 138.616 25.738C138.616 26.0327 138.598 26.3447 138.564 26.674C138.529 27.0033 138.477 27.35 138.408 27.714H129.36C129.36 28.4767 129.455 29.17 129.646 29.794C129.854 30.418 130.157 30.9553 130.556 31.406C130.972 31.8567 131.483 32.212 132.09 32.472C132.696 32.7147 133.416 32.836 134.248 32.836C134.924 32.836 135.548 32.7233 136.12 32.498C136.709 32.2727 137.177 32.0127 137.524 31.718L138.226 32.706ZM132.948 21.812C132.41 21.812 131.934 21.89 131.518 22.046C131.119 22.202 130.772 22.462 130.478 22.826C130.183 23.19 129.949 23.6753 129.776 24.282C129.602 24.8713 129.49 25.608 129.438 26.492H135.704C135.721 26.336 135.73 26.18 135.73 26.024C135.747 25.8507 135.756 25.6947 135.756 25.556C135.756 24.412 135.522 23.502 135.054 22.826C134.603 22.15 133.901 21.812 132.948 21.812Z" fill="black"/>
<path d="M147.362 23.19C146.963 23.398 146.634 23.6407 146.374 23.918C146.114 24.1953 145.837 24.594 145.542 25.114V33.2H147.83V34.5H140.888V33.2H142.812V22.15H140.888V20.85H145.542V23.476H145.646C145.941 22.904 146.287 22.41 146.686 21.994C147.085 21.5607 147.535 21.1793 148.038 20.85H150.534V23.19H147.362Z" fill="black"/>
<path d="M168.152 34.5H161.782V33.2H163.498V26.674C163.498 25.3047 163.29 24.2387 162.874 23.476C162.458 22.7133 161.695 22.332 160.586 22.332C160.101 22.332 159.65 22.41 159.234 22.566C158.835 22.722 158.471 22.93 158.142 23.19C157.83 23.45 157.553 23.7533 157.31 24.1C157.085 24.4467 156.911 24.8107 156.79 25.192V33.2H158.506V34.5H152.136V33.2H154.06V22.15H152.136V20.85H156.79V23.554H156.816C157.215 22.722 157.795 22.02 158.558 21.448C159.338 20.876 160.274 20.59 161.366 20.59C162.146 20.59 162.839 20.6767 163.446 20.85C164.053 21.006 164.555 21.3007 164.954 21.734C165.37 22.1673 165.682 22.748 165.89 23.476C166.115 24.204 166.228 25.1313 166.228 26.258V33.2H168.152V34.5Z" fill="black"/>
<path d="M181.618 32.706C181.167 33.3473 180.526 33.8587 179.694 34.24C178.879 34.604 177.926 34.786 176.834 34.786C175.69 34.786 174.676 34.6213 173.792 34.292C172.925 33.9453 172.197 33.4687 171.608 32.862C171.019 32.238 170.568 31.4927 170.256 30.626C169.961 29.742 169.814 28.7627 169.814 27.688C169.814 25.3653 170.395 23.606 171.556 22.41C172.717 21.1967 174.347 20.59 176.444 20.59C177.137 20.59 177.813 20.6767 178.472 20.85C179.148 21.0233 179.746 21.3093 180.266 21.708C180.786 22.1067 181.202 22.6353 181.514 23.294C181.843 23.9527 182.008 24.7673 182.008 25.738C182.008 26.0327 181.991 26.3447 181.956 26.674C181.921 27.0033 181.869 27.35 181.8 27.714H172.752C172.752 28.4767 172.847 29.17 173.038 29.794C173.246 30.418 173.549 30.9553 173.948 31.406C174.364 31.8567 174.875 32.212 175.482 32.472C176.089 32.7147 176.808 32.836 177.64 32.836C178.316 32.836 178.94 32.7233 179.512 32.498C180.101 32.2727 180.569 32.0127 180.916 31.718L181.618 32.706ZM176.34 21.812C175.803 21.812 175.326 21.89 174.91 22.046C174.511 22.202 174.165 22.462 173.87 22.826C173.575 23.19 173.341 23.6753 173.168 24.282C172.995 24.8713 172.882 25.608 172.83 26.492H179.096C179.113 26.336 179.122 26.18 179.122 26.024C179.139 25.8507 179.148 25.6947 179.148 25.556C179.148 24.412 178.914 23.502 178.446 22.826C177.995 22.15 177.293 21.812 176.34 21.812Z" fill="black"/>
<path d="M183.813 20.85H186.127V17.6H188.857V20.85H193.173V22.514H188.857V30.106C188.857 31.198 188.995 31.9693 189.273 32.42C189.55 32.8707 190.001 33.096 190.625 33.096C191.162 33.096 191.621 33.0007 192.003 32.81C192.401 32.6193 192.765 32.4113 193.095 32.186L193.745 33.2C193.589 33.356 193.372 33.5293 193.095 33.72C192.835 33.8933 192.531 34.058 192.185 34.214C191.838 34.37 191.448 34.5 191.015 34.604C190.599 34.708 190.165 34.76 189.715 34.76C188.553 34.76 187.661 34.4653 187.037 33.876C186.43 33.2693 186.127 32.2727 186.127 30.886V22.514H183.813V20.85Z" fill="black"/>
<path d="M210.005 31.406C210.005 30.938 209.831 30.5307 209.485 30.184C209.138 29.82 208.705 29.4907 208.185 29.196C207.665 28.884 207.101 28.5807 206.495 28.286C205.888 27.974 205.325 27.6273 204.805 27.246C204.285 26.8473 203.851 26.388 203.505 25.868C203.158 25.3307 202.985 24.6893 202.985 23.944C202.985 23.4413 203.106 22.9907 203.349 22.592C203.591 22.176 203.912 21.8207 204.311 21.526C204.727 21.2313 205.212 21.006 205.767 20.85C206.321 20.6767 206.911 20.59 207.535 20.59C208.055 20.59 208.514 20.6073 208.913 20.642C209.311 20.6767 209.675 20.7287 210.005 20.798C210.334 20.85 210.646 20.9193 210.941 21.006C211.235 21.0927 211.539 21.188 211.851 21.292V24.802H210.187V22.748L209.693 22.176C209.467 22.124 209.225 22.0807 208.965 22.046C208.705 22.0113 208.427 21.994 208.133 21.994C207.301 21.994 206.677 22.1587 206.261 22.488C205.862 22.8 205.663 23.1987 205.663 23.684C205.663 24.152 205.836 24.5593 206.183 24.906C206.529 25.2527 206.963 25.582 207.483 25.894C208.003 26.1887 208.566 26.4833 209.173 26.778C209.779 27.0727 210.343 27.4107 210.863 27.792C211.383 28.156 211.816 28.5807 212.163 29.066C212.509 29.5513 212.683 30.132 212.683 30.808C212.683 31.432 212.535 31.9867 212.241 32.472C211.963 32.9573 211.573 33.3733 211.071 33.72C210.585 34.0493 210.005 34.3093 209.329 34.5C208.67 34.6733 207.968 34.76 207.223 34.76C206.391 34.76 205.576 34.656 204.779 34.448C203.999 34.2227 203.383 33.9627 202.933 33.668V30.262H204.597V32.238L205.117 32.784C205.342 32.9573 205.611 33.096 205.923 33.2C206.235 33.304 206.642 33.356 207.145 33.356C207.977 33.356 208.661 33.1827 209.199 32.836C209.736 32.4893 210.005 32.0127 210.005 31.406Z" fill="black"/>
<path d="M226.549 32.758C226.185 33.2607 225.604 33.7287 224.807 34.162C224.027 34.578 223.1 34.786 222.025 34.786C220.881 34.786 219.876 34.6213 219.009 34.292C218.16 33.9453 217.449 33.4687 216.877 32.862C216.305 32.238 215.88 31.4927 215.603 30.626C215.326 29.742 215.187 28.7627 215.187 27.688C215.187 25.3827 215.794 23.6233 217.007 22.41C218.238 21.1967 219.902 20.59 221.999 20.59C222.952 20.59 223.741 20.6507 224.365 20.772C224.989 20.8933 225.561 21.084 226.081 21.344V24.724H223.741V22.228C223.481 22.072 222.961 21.994 222.181 21.994C221.522 21.994 220.942 22.0893 220.439 22.28C219.936 22.4707 219.512 22.7827 219.165 23.216C218.818 23.6493 218.558 24.23 218.385 24.958C218.212 25.686 218.125 26.5787 218.125 27.636C218.125 28.3293 218.22 28.9967 218.411 29.638C218.602 30.262 218.888 30.8167 219.269 31.302C219.65 31.77 220.127 32.1427 220.699 32.42C221.288 32.6973 221.973 32.836 222.753 32.836C223.169 32.836 223.533 32.7927 223.845 32.706C224.174 32.6193 224.46 32.5327 224.703 32.446C224.946 32.342 225.162 32.2293 225.353 32.108C225.544 31.9867 225.726 31.8567 225.899 31.718L226.549 32.758Z" fill="black"/>
<path d="M244.319 34.5H237.949V33.2H239.665V26.804C239.665 25.3653 239.474 24.2647 239.093 23.502C238.711 22.722 238.035 22.332 237.065 22.332C236.545 22.332 236.059 22.4187 235.609 22.592C235.158 22.7653 234.759 22.9907 234.413 23.268C234.066 23.5453 233.763 23.8573 233.503 24.204C233.26 24.5333 233.078 24.8627 232.957 25.192V33.2H234.673V34.5H228.303V33.2H230.227V16.3H228.017V15H232.957V23.606H232.983C233.381 22.7567 234.005 22.046 234.855 21.474C235.721 20.8847 236.753 20.59 237.949 20.59C238.625 20.59 239.24 20.6767 239.795 20.85C240.349 21.006 240.817 21.3007 241.199 21.734C241.58 22.1673 241.875 22.748 242.083 23.476C242.291 24.204 242.395 25.1313 242.395 26.258V33.2H244.319V34.5Z" fill="black"/>
<path d="M245.986 27.688C245.986 26.544 246.151 25.53 246.48 24.646C246.809 23.762 247.269 23.0253 247.858 22.436C248.465 21.8293 249.193 21.37 250.042 21.058C250.909 20.746 251.862 20.59 252.902 20.59C254.115 20.59 255.155 20.7633 256.022 21.11C256.906 21.4393 257.625 21.916 258.18 22.54C258.735 23.1467 259.142 23.892 259.402 24.776C259.679 25.6427 259.818 26.6133 259.818 27.688C259.818 28.832 259.653 29.846 259.324 30.73C259.012 31.5967 258.553 32.3333 257.946 32.94C257.357 33.5293 256.629 33.98 255.762 34.292C254.913 34.604 253.959 34.76 252.902 34.76C251.723 34.76 250.701 34.5953 249.834 34.266C248.967 33.9193 248.248 33.4427 247.676 32.836C247.104 32.212 246.679 31.4667 246.402 30.6C246.125 29.7333 245.986 28.7627 245.986 27.688ZM248.924 27.688C248.924 28.52 249.002 29.2913 249.158 30.002C249.314 30.7127 249.565 31.328 249.912 31.848C250.276 32.368 250.735 32.784 251.29 33.096C251.862 33.3907 252.555 33.538 253.37 33.538C254.393 33.538 255.233 33.07 255.892 32.134C256.551 31.198 256.88 29.716 256.88 27.688C256.88 26.856 256.802 26.0847 256.646 25.374C256.49 24.646 256.239 24.022 255.892 23.502C255.563 22.9647 255.129 22.5487 254.592 22.254C254.072 21.9593 253.431 21.812 252.668 21.812C251.524 21.812 250.614 22.28 249.938 23.216C249.262 24.152 248.924 25.6427 248.924 27.688Z" fill="black"/>
<path d="M262.16 27.688C262.16 26.544 262.324 25.53 262.654 24.646C262.983 23.762 263.442 23.0253 264.032 22.436C264.638 21.8293 265.366 21.37 266.216 21.058C267.082 20.746 268.036 20.59 269.076 20.59C270.289 20.59 271.329 20.7633 272.196 21.11C273.08 21.4393 273.799 21.916 274.354 22.54C274.908 23.1467 275.316 23.892 275.576 24.776C275.853 25.6427 275.992 26.6133 275.992 27.688C275.992 28.832 275.827 29.846 275.498 30.73C275.186 31.5967 274.726 32.3333 274.12 32.94C273.53 33.5293 272.802 33.98 271.936 34.292C271.086 34.604 270.133 34.76 269.076 34.76C267.897 34.76 266.874 34.5953 266.008 34.266C265.141 33.9193 264.422 33.4427 263.85 32.836C263.278 32.212 262.853 31.4667 262.576 30.6C262.298 29.7333 262.16 28.7627 262.16 27.688ZM265.098 27.688C265.098 28.52 265.176 29.2913 265.332 30.002C265.488 30.7127 265.739 31.328 266.086 31.848C266.45 32.368 266.909 32.784 267.464 33.096C268.036 33.3907 268.729 33.538 269.544 33.538C270.566 33.538 271.407 33.07 272.066 32.134C272.724 31.198 273.054 29.716 273.054 27.688C273.054 26.856 272.976 26.0847 272.82 25.374C272.664 24.646 272.412 24.022 272.066 23.502C271.736 22.9647 271.303 22.5487 270.766 22.254C270.246 21.9593 269.604 21.812 268.842 21.812C267.698 21.812 266.788 22.28 266.112 23.216C265.436 24.152 265.098 25.6427 265.098 27.688Z" fill="black"/>
<path d="M284.912 34.5H278.334V33.2H280.258V16.3H278.048V15H282.988V33.2H284.912V34.5Z" fill="black"/>
<path fill-rule="evenodd" clip-rule="evenodd" d="M18.8303 5.35227C5.08646 9.49059 1.00621 10.7657 0.680535 11.0244C0.155957 11.441 -0.100988 12.1227 0.0367617 12.7319C0.250363 13.6757 0.502262 13.7823 7.72464 15.9862L14.366 18.0128L14.3672 24.119C14.368 27.4775 14.4122 30.4062 14.4656 30.6275C14.6022 31.1938 16.2265 32.5808 17.6956 33.3858C22.588 36.0665 29.3259 37.287 38.2613 37.1114C44.7678 36.9834 49.4935 36.2023 53.6496 34.5679C55.925 33.6731 58.1002 32.3853 59.0145 31.3919L59.4193 30.9521L59.5678 18.1623L62.1654 17.3817C63.5941 16.9524 64.8131 16.6004 64.8744 16.5994C64.9357 16.5985 64.9857 20.042 64.9857 24.2514V31.9052L61.808 34.5568C57.312 38.3085 57.3124 37.9532 61.7994 41.6991L64.9685 44.3448L65.0142 46.7049C65.0564 48.8791 65.0846 49.0922 65.3724 49.4119C66.324 50.469 68.1005 50.469 69.0522 49.4119C69.3403 49.092 69.368 48.8806 69.4084 46.7049L69.4522 44.3448L72.474 41.8224C74.1359 40.435 75.6024 39.1227 75.7329 38.9062C76.0347 38.4051 76.0347 37.8568 75.7329 37.3558C75.6024 37.1392 74.1324 35.8261 72.4662 34.4376L69.4368 31.9132L69.5131 15.1937L71.5192 14.573C74.0556 13.7881 74.1557 13.7379 74.5111 13.0721C74.8996 12.3439 74.771 11.6704 74.1353 11.1051C73.711 10.7278 72.0698 10.2109 55.8274 5.33861C41.0496 0.905482 37.8632 -0.0112173 37.2728 0.000102987C36.731 0.010562 32.3053 1.29493 18.8303 5.35227ZM51.6264 8.00443C59.3414 10.3166 65.7006 12.2411 65.7579 12.2808C65.8153 12.3207 59.3457 14.2999 51.3811 16.6791L36.8999 21.0049L22.8086 16.6795C13.0016 13.6691 8.79784 12.3256 8.98235 12.2605C10.1048 11.8642 37.0712 3.81763 37.3021 3.81C37.4654 3.80471 43.9113 5.69213 51.6264 8.00443ZM27.6019 22.0997C34.4447 24.2106 36.4034 24.7689 36.931 24.7591C37.4014 24.7502 40.1596 23.9784 46.2581 22.1487C51.0207 20.72 54.9451 19.5509 54.9788 19.5509C55.0127 19.5509 55.0404 21.7894 55.0404 24.5253V29.4997L54.5152 29.8585C51.943 31.6161 46.8348 32.9281 40.957 33.3405C38.4032 33.5198 33.1253 33.4268 30.8451 33.1625C25.8824 32.5871 21.7456 31.4279 19.5714 30.0032L18.8217 29.5119V24.4699C18.8217 21.6968 18.8485 19.4279 18.8812 19.4279C18.914 19.4279 22.8384 20.6301 27.6019 22.0997ZM68.9202 36.7782L70.5487 38.1325L67.2123 40.8982L63.8759 38.1325L65.5044 36.7782C66.4002 36.0334 67.1687 35.4239 67.2123 35.4239C67.2559 35.4239 68.0244 36.0334 68.9202 36.7782Z" fill="black"/>
</svg>
